<?xml version="1.0" standalone="no"?>
<!DOCTYPE svg PUBLIC "-//W3C//DTD SVG 20010904//EN"
 "http://www.w3.org/TR/2001/REC-SVG-20010904/DTD/svg10.dtd">
<svg version="1.0" xmlns="http://www.w3.org/2000/svg"
 width="900.000000pt" height="540.000000pt" viewBox="0 0 900.000000 540.000000"
 preserveAspectRatio="xMidYMid meet">
<metadata>
Created by potrace 1.16, written by Peter Selinger 2001-2019
</metadata>
<g transform="translate(0.000000,540.000000) scale(0.100000,-0.100000)"
fill="#000000" stroke="none">
<path d="M2410 5393 c-424 -42 -793 -161 -1129 -363 -698 -419 -1144 -1100
-1263 -1925 -20 -138 -17 -541 5 -690 85 -578 341 -1091 747 -1495 139 -139
244 -224 411 -336 590 -392 1324 -526 2024 -369 374 84 775 278 1057 511 43
35 80 64 83 64 3 0 5 -155 5 -345 l0 -346 1153 4 c1288 3 1216 0 1523 77 194
49 311 93 509 190 525 257 939 671 1195 1194 97 197 140 315 190 510 53 212
72 350 77 583 8 313 -28 579 -117 857 -314 978 -1132 1663 -2167 1814 -106 15
-232 17 -1238 17 l-1120 0 -2 -170 c-2 -93 0 -175 5 -180 4 -6 43 -40 87 -77
105 -87 293 -280 380 -392 39 -49 78 -98 87 -110 17 -20 17 -12 18 167 l0 187
799 0 c887 0 921 -2 1164 -64 342 -89 646 -259 900 -505 186 -180 312 -352
423 -576 304 -613 278 -1349 -69 -1938 -275 -465 -732 -812 -1250 -947 -241
-63 -225 -62 -1134 -67 l-833 -4 0 939 c0 844 -2 940 -16 946 -8 3 -457 5
-997 3 l-982 -2 -3 -287 -2 -288 710 0 710 0 0 -153 0 -153 -51 -75 c-258
-375 -664 -666 -1108 -794 -478 -137 -998 -94 -1444 118 -214 102 -377 217
-555 391 -327 320 -528 714 -598 1171 -23 150 -23 433 0 581 139 908 832 1601
1740 1740 148 23 431 23 581 0 441 -68 820 -255 1134 -560 112 -109 212 -229
285 -343 26 -40 52 -73 59 -73 7 1 131 38 277 84 204 64 265 87 264 99 -2 25
-122 218 -201 324 -256 341 -565 600 -942 788 -376 187 -765 277 -1181 273
-91 0 -181 -3 -200 -5z"/>
</g>
</svg>
